<svg width="195" height="81" viewBox="0 0 195 81" fill="none" xmlns="http://www.w3.org/2000/svg">
<path d="M16.0474 32.1235L16.0474 67.6172C16.0474 68.96 17.136 70.0486 18.4788 70.0486L18.4788 70.0486C19.8216 70.0486 20.9102 68.96 20.9102 67.6172L20.9102 32.1235C20.9102 30.7806 19.8216 29.6921 18.4788 29.6921C17.136 29.6921 16.0474 30.7806 16.0474 32.1235Z" fill="black"/>
<path d="M59.8128 32.1235L59.8128 67.6172C59.8128 68.96 60.9014 70.0486 62.2442 70.0486L62.2442 70.0486C63.587 70.0486 64.6756 68.96 64.6756 67.6172L64.6756 32.1235C64.6756 30.7806 63.587 29.6921 62.2442 29.6921C60.9014 29.6921 59.8128 30.7806 59.8128 32.1235Z" fill="black"/>
<path d="M132.755 12.1883L132.755 46.2234C132.755 47.5662 133.844 48.6548 135.187 48.6548L135.187 48.6548C136.53 48.6548 137.618 47.5662 137.618 46.2234L137.618 12.1883C137.618 10.8455 136.53 9.75688 135.187 9.75688C133.844 9.75688 132.755 10.8455 132.755 12.1883Z" fill="black"/>
<path d="M176.521 12.1883L176.521 46.2234C176.521 47.5662 177.61 48.6548 178.952 48.6548L178.952 48.6548C180.295 48.6548 181.384 47.5662 181.384 46.2234L181.384 12.1883C181.384 10.8455 180.295 9.75688 178.952 9.75688C177.61 9.75688 176.521 10.8455 176.521 12.1883Z" fill="black"/>
<path d="M37.93 33.0954L37.9301 72.4795C37.9301 73.8222 39.0186 74.9106 40.3615 74.9106C41.7044 74.9106 42.7929 73.8222 42.7929 72.4795L42.7929 33.0954L37.93 33.0954Z" fill="black"/>
<path d="M42.7929 27.2607L42.7929 21.9123C42.7929 20.5696 41.7044 19.4814 40.3615 19.4814C39.0186 19.4814 37.93 20.5696 37.93 21.9123L37.93 27.2607L42.7929 27.2607Z" fill="black"/>
<path d="M154.638 52.5446L154.638 58.3792C154.638 59.7218 155.727 60.8103 157.07 60.8103C158.412 60.8103 159.501 59.7218 159.501 58.3792L159.501 52.5446L154.638 52.5446Z" fill="black"/>
<path d="M159.501 46.7097L159.501 7.81182C159.501 6.46913 158.412 5.38062 157.07 5.38062C155.727 5.38062 154.638 6.46913 154.638 7.81182L154.638 46.7097L159.501 46.7097Z" fill="black"/>
<path d="M195 55.6288C176.134 69.1988 161.39 71.9438 149.124 69.4967C131.84 66.0487 117.67 52.1598 102.147 36.7007L101.56 36.1153C86.7893 21.4029 70.6613 5.33799 50.2106 1.25828C35.3168 -1.71305 18.9693 1.72588 -5.72775e-06 14.5144L-4.68389e-06 26.4548C20.0377 11.3357 35.5194 8.24359 48.3076 10.7948C65.5916 14.2427 79.7611 28.1317 95.284 43.5907L95.8719 44.1762C110.642 58.8887 126.77 74.9534 147.221 79.0332C161.475 81.8768 177.06 78.8494 195 67.3745L195 55.6288Z" fill="black"/>
<path d="M50.2105 78.774C35.3168 81.7452 18.9695 78.3065 0.000654882 65.5183L0.000653838 53.578C20.0379 68.6965 35.5193 71.7886 48.3076 69.2374C62.9369 66.3189 75.3352 55.9204 88.2115 43.4207C89.4121 44.6072 90.6248 45.8131 91.8522 47.0358L92.948 48.1272C93.6645 48.841 94.3875 49.5611 95.1173 50.286C82.078 62.9875 67.7304 75.2788 50.2105 78.774Z" fill="black"/>
<path d="M91.6841 40.0158C92.8774 41.1953 94.0765 42.3881 95.2838 43.5906L95.8718 44.176C96.7708 45.0717 97.675 45.9723 98.5848 46.8748C99.5797 45.8886 100.568 44.9046 101.55 43.9267L102.147 43.3313C103.266 42.2168 104.378 41.1106 105.485 40.0158C104.378 38.9212 103.266 37.815 102.147 36.7006L101.559 36.1151L101.559 36.1146C100.574 35.1335 99.5828 34.1462 98.5848 33.1568C97.6816 34.053 96.7839 34.947 95.8914 35.8364L95.2838 36.4413C94.0765 37.6438 92.8774 38.8366 91.6841 40.0158Z" fill="black"/>
<path d="M102.051 29.7436C102.87 30.5569 103.681 31.3645 104.483 32.1642L105.579 33.2556C106.716 34.3885 107.841 35.507 108.955 36.6089C121.926 23.995 134.394 13.4737 149.124 10.5354C161.39 8.08819 176.134 10.8332 195 24.4034L195 12.6576C177.06 1.18266 161.475 -1.84468 147.221 0.998825C129.583 4.51756 115.16 16.9512 102.051 29.7436Z" fill="black"/>
</svg>
