<svg width="25" height="25" viewBox="0 0 25 25" fill="none" xmlns="http://www.w3.org/2000/svg">
<path d="M25 12.576C25 5.6288 19.4048 0 12.5 0C5.59516 0 0 5.6288 0 12.576C0 18.8529 4.57097 24.0558 10.5468 25V16.2114H7.37178V12.576H10.5468V9.80523C10.5468 6.65365 12.4121 4.91278 15.2685 4.91278C16.6363 4.91278 18.0669 5.15821 18.0669 5.15821V8.25153H16.4903C14.9379 8.25153 14.4532 9.22112 14.4532 10.2155V12.576H17.9202L17.3653 16.2114H14.4532V25C20.429 24.0558 25 18.8529 25 12.576Z" fill="#0884CA" fill-opacity="0.7"/>
<path d="M25 12.576C25 5.6288 19.4048 0 12.5 0C5.59516 0 0 5.6288 0 12.576C0 18.8529 4.57097 24.0558 10.5468 25V16.2114H7.37178V12.576H10.5468V9.80523C10.5468 6.65365 12.4121 4.91278 15.2685 4.91278C16.6363 4.91278 18.0669 5.15821 18.0669 5.15821V8.25153H16.4903C14.9379 8.25153 14.4532 9.22112 14.4532 10.2155V12.576H17.9202L17.3653 16.2114H14.4532V25C20.429 24.0558 25 18.8529 25 12.576Z" fill="#888888"/>
</svg>
