<svg width="26" height="25" viewBox="0 0 26 25" fill="none" xmlns="http://www.w3.org/2000/svg">
<path d="M8.93176 19.8916C8.93176 19.9917 8.81582 20.0718 8.66965 20.0718C8.50332 20.0868 8.38746 20.0067 8.38746 19.8916C8.38746 19.7914 8.50332 19.7113 8.64949 19.7113C8.80074 19.6963 8.93176 19.7764 8.93176 19.8916ZM7.36426 19.6662C7.32895 19.7664 7.42973 19.8815 7.58098 19.9116C7.712 19.9617 7.86324 19.9116 7.89348 19.8114C7.92371 19.7113 7.82793 19.5961 7.67676 19.551C7.54567 19.516 7.39949 19.566 7.36426 19.6662ZM9.59207 19.581C9.4459 19.6161 9.34512 19.7113 9.3602 19.8264C9.37535 19.9266 9.50637 19.9917 9.65762 19.9567C9.80379 19.9216 9.90457 19.8264 9.88942 19.7263C9.87434 19.6311 9.73825 19.566 9.59207 19.581ZM12.9086 0.390625C5.9177 0.390625 0.569885 5.66399 0.569885 12.61C0.569885 18.1638 4.08801 22.9164 9.11325 24.589C9.7584 24.7042 9.9852 24.3085 9.9852 23.9831C9.9852 23.6725 9.97012 21.9598 9.97012 20.9081C9.97012 20.9081 6.44184 21.6593 5.7009 19.4158C5.7009 19.4158 5.12637 17.9585 4.29973 17.5829C4.29973 17.5829 3.14551 16.7967 4.38035 16.8117C4.38035 16.8117 5.63543 16.9118 6.3259 18.1037C7.42973 20.0367 9.27957 19.4809 10.0004 19.1504C10.1163 18.3491 10.4439 17.7932 10.8068 17.4627C7.98926 17.1522 5.14653 16.7466 5.14653 11.9289C5.14653 10.5517 5.52957 9.86064 6.33598 8.97923C6.20496 8.65376 5.77653 7.3116 6.46707 5.57885C7.52051 5.25333 9.94489 6.931 9.94489 6.931C10.9529 6.65055 12.0366 6.50532 13.1102 6.50532C14.1838 6.50532 15.2675 6.65055 16.2755 6.931C16.2755 6.931 18.7 5.24833 19.7533 5.57885C20.4439 7.31661 20.0154 8.65376 19.8844 8.97923C20.6908 9.86564 21.1848 10.5567 21.1848 11.9289C21.1848 16.7616 18.2161 17.1472 15.3985 17.4627C15.8622 17.8583 16.2554 18.6096 16.2554 19.7864C16.2554 21.4741 16.2403 23.5624 16.2403 23.973C16.2403 24.2985 16.4721 24.6942 17.1122 24.579C22.1525 22.9164 25.5699 18.1638 25.5699 12.61C25.5699 5.66399 19.8995 0.390625 12.9086 0.390625ZM5.4691 17.663C5.40356 17.7131 5.41871 17.8283 5.50434 17.9235C5.58504 18.0035 5.7009 18.0386 5.76645 17.9735C5.83199 17.9235 5.81684 17.8082 5.73121 17.7131C5.65051 17.633 5.53457 17.5979 5.4691 17.663ZM4.92473 17.2574C4.88942 17.3224 4.93981 17.4026 5.04067 17.4527C5.12129 17.5028 5.22207 17.4878 5.25739 17.4176C5.2927 17.3525 5.24223 17.2724 5.14145 17.2223C5.04067 17.1923 4.96004 17.2073 4.92473 17.2574ZM6.55778 19.0402C6.47715 19.1053 6.50739 19.2556 6.62332 19.3507C6.73926 19.4659 6.88543 19.4809 6.9509 19.4008C7.01645 19.3356 6.98621 19.1854 6.88543 19.0903C6.7745 18.9751 6.62332 18.9601 6.55778 19.0402ZM5.98317 18.304C5.90254 18.3541 5.90254 18.4843 5.98317 18.5995C6.06387 18.7147 6.19996 18.7648 6.26543 18.7147C6.34606 18.6496 6.34606 18.5194 6.26543 18.4042C6.19488 18.289 6.06387 18.2389 5.98317 18.304Z" fill="white"/>
<path d="M8.93176 19.8916C8.93176 19.9917 8.81582 20.0718 8.66965 20.0718C8.50332 20.0868 8.38746 20.0067 8.38746 19.8916C8.38746 19.7914 8.50332 19.7113 8.64949 19.7113C8.80074 19.6963 8.93176 19.7764 8.93176 19.8916ZM7.36426 19.6662C7.32895 19.7664 7.42973 19.8815 7.58098 19.9116C7.712 19.9617 7.86324 19.9116 7.89348 19.8114C7.92371 19.7113 7.82793 19.5961 7.67676 19.551C7.54567 19.516 7.39949 19.566 7.36426 19.6662ZM9.59207 19.581C9.4459 19.6161 9.34512 19.7113 9.3602 19.8264C9.37535 19.9266 9.50637 19.9917 9.65762 19.9567C9.80379 19.9216 9.90457 19.8264 9.88942 19.7263C9.87434 19.6311 9.73825 19.566 9.59207 19.581ZM12.9086 0.390625C5.9177 0.390625 0.569885 5.66399 0.569885 12.61C0.569885 18.1638 4.08801 22.9164 9.11325 24.589C9.7584 24.7042 9.9852 24.3085 9.9852 23.9831C9.9852 23.6725 9.97012 21.9598 9.97012 20.9081C9.97012 20.9081 6.44184 21.6593 5.7009 19.4158C5.7009 19.4158 5.12637 17.9585 4.29973 17.5829C4.29973 17.5829 3.14551 16.7967 4.38035 16.8117C4.38035 16.8117 5.63543 16.9118 6.3259 18.1037C7.42973 20.0367 9.27957 19.4809 10.0004 19.1504C10.1163 18.3491 10.4439 17.7932 10.8068 17.4627C7.98926 17.1522 5.14653 16.7466 5.14653 11.9289C5.14653 10.5517 5.52957 9.86064 6.33598 8.97923C6.20496 8.65376 5.77653 7.3116 6.46707 5.57885C7.52051 5.25333 9.94489 6.931 9.94489 6.931C10.9529 6.65055 12.0366 6.50532 13.1102 6.50532C14.1838 6.50532 15.2675 6.65055 16.2755 6.931C16.2755 6.931 18.7 5.24833 19.7533 5.57885C20.4439 7.31661 20.0154 8.65376 19.8844 8.97923C20.6908 9.86564 21.1848 10.5567 21.1848 11.9289C21.1848 16.7616 18.2161 17.1472 15.3985 17.4627C15.8622 17.8583 16.2554 18.6096 16.2554 19.7864C16.2554 21.4741 16.2403 23.5624 16.2403 23.973C16.2403 24.2985 16.4721 24.6942 17.1122 24.579C22.1525 22.9164 25.5699 18.1638 25.5699 12.61C25.5699 5.66399 19.8995 0.390625 12.9086 0.390625ZM5.4691 17.663C5.40356 17.7131 5.41871 17.8283 5.50434 17.9235C5.58504 18.0035 5.7009 18.0386 5.76645 17.9735C5.83199 17.9235 5.81684 17.8082 5.73121 17.7131C5.65051 17.633 5.53457 17.5979 5.4691 17.663ZM4.92473 17.2574C4.88942 17.3224 4.93981 17.4026 5.04067 17.4527C5.12129 17.5028 5.22207 17.4878 5.25739 17.4176C5.2927 17.3525 5.24223 17.2724 5.14145 17.2223C5.04067 17.1923 4.96004 17.2073 4.92473 17.2574ZM6.55778 19.0402C6.47715 19.1053 6.50739 19.2556 6.62332 19.3507C6.73926 19.4659 6.88543 19.4809 6.9509 19.4008C7.01645 19.3356 6.98621 19.1854 6.88543 19.0903C6.7745 18.9751 6.62332 18.9601 6.55778 19.0402ZM5.98317 18.304C5.90254 18.3541 5.90254 18.4843 5.98317 18.5995C6.06387 18.7147 6.19996 18.7648 6.26543 18.7147C6.34606 18.6496 6.34606 18.5194 6.26543 18.4042C6.19488 18.289 6.06387 18.2389 5.98317 18.304Z" fill="black" fill-opacity="0.5"/>
</svg>
