<svg width="25" height="25" viewBox="0 0 25 25" fill="none" xmlns="http://www.w3.org/2000/svg">
<path d="M23.2143 0H1.78014C0.797991 0 0 0.809155 0 1.80245V23.1976C0 24.1909 0.797991 25 1.78014 25H23.2143C24.1965 25 25 24.1909 25 23.1976V1.80245C25 0.809155 24.1965 0 23.2143 0ZM7.55581 21.4286H3.85044V9.49776H7.56139V21.4286H7.55581ZM5.70313 7.86832C4.51451 7.86832 3.55469 6.90292 3.55469 5.71987C3.55469 4.53684 4.51451 3.57143 5.70313 3.57143C6.88616 3.57143 7.85156 4.53684 7.85156 5.71987C7.85156 6.9085 6.89174 7.86832 5.70313 7.86832ZM21.4453 21.4286H17.7399V15.625C17.7399 14.2411 17.712 12.461 15.8148 12.461C13.884 12.461 13.5881 13.9677 13.5881 15.5245V21.4286H9.88282V9.49776H13.4375V11.1273H13.4877C13.9844 10.1898 15.1953 9.20203 16.9977 9.20203C20.7477 9.20203 21.4453 11.6741 21.4453 14.8884V21.4286Z" fill="white"/>
<path d="M23.2143 0H1.78014C0.797991 0 0 0.809155 0 1.80245V23.1976C0 24.1909 0.797991 25 1.78014 25H23.2143C24.1965 25 25 24.1909 25 23.1976V1.80245C25 0.809155 24.1965 0 23.2143 0ZM7.55581 21.4286H3.85044V9.49776H7.56139V21.4286H7.55581ZM5.70313 7.86832C4.51451 7.86832 3.55469 6.90292 3.55469 5.71987C3.55469 4.53684 4.51451 3.57143 5.70313 3.57143C6.88616 3.57143 7.85156 4.53684 7.85156 5.71987C7.85156 6.9085 6.89174 7.86832 5.70313 7.86832ZM21.4453 21.4286H17.7399V15.625C17.7399 14.2411 17.712 12.461 15.8148 12.461C13.884 12.461 13.5881 13.9677 13.5881 15.5245V21.4286H9.88282V9.49776H13.4375V11.1273H13.4877C13.9844 10.1898 15.1953 9.20203 16.9977 9.20203C20.7477 9.20203 21.4453 11.6741 21.4453 14.8884V21.4286Z" fill="#888888"/>
<path d="M23.2143 0H1.78014C0.797991 0 0 0.809155 0 1.80245V23.1976C0 24.1909 0.797991 25 1.78014 25H23.2143C24.1965 25 25 24.1909 25 23.1976V1.80245C25 0.809155 24.1965 0 23.2143 0ZM7.55581 21.4286H3.85044V9.49776H7.56139V21.4286H7.55581ZM5.70313 7.86832C4.51451 7.86832 3.55469 6.90292 3.55469 5.71987C3.55469 4.53684 4.51451 3.57143 5.70313 3.57143C6.88616 3.57143 7.85156 4.53684 7.85156 5.71987C7.85156 6.9085 6.89174 7.86832 5.70313 7.86832ZM21.4453 21.4286H17.7399V15.625C17.7399 14.2411 17.712 12.461 15.8148 12.461C13.884 12.461 13.5881 13.9677 13.5881 15.5245V21.4286H9.88282V9.49776H13.4375V11.1273H13.4877C13.9844 10.1898 15.1953 9.20203 16.9977 9.20203C20.7477 9.20203 21.4453 11.6741 21.4453 14.8884V21.4286Z" fill="#0E76A8" fill-opacity="0.51"/>
</svg>
