<svg width="1380" height="1380" viewBox="0 0 1380 1380" fill="none" xmlns="http://www.w3.org/2000/svg">
<rect x="0.5" y="0.5" width="1379" height="1379" fill="white"/>
<circle cx="690" cy="689" r="666" fill="white"/>
<path d="M1143.85 732.984V535.187C1143.85 527.703 1137.79 521.637 1130.3 521.637H1130.3C1122.82 521.637 1116.75 527.703 1116.75 535.187V732.984C1116.75 740.468 1122.82 746.534 1130.3 746.534H1130.3C1137.79 746.534 1143.85 740.468 1143.85 732.984Z" fill="black"/>
<path d="M899.96 732.984V535.187C899.96 527.703 893.894 521.637 886.411 521.637H886.41C878.927 521.637 872.861 527.703 872.861 535.187V732.984C872.861 740.468 878.927 746.534 886.41 746.534H886.411C893.894 746.534 899.96 740.468 899.96 732.984Z" fill="black"/>
<path d="M493.469 844.078V654.409C493.469 646.926 487.402 640.859 479.919 640.859H479.919C472.436 640.859 466.369 646.926 466.369 654.409V844.078C466.369 851.562 472.436 857.628 479.919 857.628H479.919C487.402 857.628 493.469 851.562 493.469 844.078Z" fill="black"/>
<path d="M249.574 844.078V654.409C249.574 646.926 243.507 640.859 236.024 640.859H236.024C228.541 640.859 222.474 646.926 222.474 654.409V844.078C222.474 851.562 228.541 857.628 236.024 857.628H236.024C243.507 857.628 249.574 851.562 249.574 844.078Z" fill="black"/>
<path d="M1021.91 727.567V508.089C1021.91 500.607 1015.84 494.541 1008.36 494.541C1000.87 494.541 994.808 500.607 994.808 508.089V727.567H1021.91Z" fill="black"/>
<path d="M994.808 760.083V789.888C994.808 797.371 1000.87 803.436 1008.36 803.436C1015.84 803.436 1021.91 797.371 1021.91 789.888V760.083H994.808Z" fill="black"/>
<path d="M371.521 619.182V586.668C371.521 579.185 365.455 573.12 357.971 573.12C350.488 573.12 344.422 579.185 344.422 586.668V619.182H371.521Z" fill="black"/>
<path d="M344.422 651.698V868.467C344.422 875.949 350.488 882.015 357.971 882.015C365.455 882.015 371.521 875.949 371.521 868.467V651.698H344.422Z" fill="black"/>
<path d="M146.595 601.994C251.729 526.372 333.895 511.075 402.251 524.712C498.57 543.927 577.534 621.326 664.04 707.476L667.315 710.739C749.626 792.727 839.504 882.253 953.471 904.988C1036.47 921.547 1127.57 902.382 1233.28 831.115V764.574C1121.62 848.829 1035.34 866.061 964.076 851.843C867.756 832.629 788.793 755.229 702.288 669.08L699.012 665.817C616.699 583.828 526.823 494.303 412.856 471.567C333.424 455.721 246.572 472.591 146.595 536.538L146.595 601.994Z" fill="black"/>
<path d="M953.471 473.012C1036.47 456.454 1127.57 475.617 1233.28 546.883V613.423C1121.62 529.171 1035.34 511.94 964.076 526.157C882.55 542.421 813.458 600.369 741.701 670.027C735.011 663.415 728.253 656.695 721.412 649.881L715.306 643.799C711.313 639.821 707.284 635.808 703.217 631.769C775.882 560.986 855.837 492.49 953.471 473.012Z" fill="black"/>
<path d="M722.349 689.001C715.699 682.428 709.017 675.781 702.289 669.08L699.012 665.817C694.002 660.825 688.963 655.807 683.893 650.778C678.349 656.273 672.844 661.757 667.371 667.206L664.041 670.524C657.805 676.735 651.608 682.9 645.442 689.001C651.608 695.101 657.805 701.265 664.041 707.476L667.316 710.739L667.319 710.741C672.808 716.209 678.332 721.711 683.893 727.224C688.927 722.23 693.929 717.248 698.903 712.292L702.289 708.921C709.017 702.219 715.699 695.572 722.349 689.001Z" fill="black"/>
<path d="M664.579 746.245C660.013 741.713 655.494 737.212 651.022 732.756L644.915 726.674C638.578 720.361 632.31 714.127 626.101 707.987C553.816 778.281 484.337 836.913 402.252 853.288C333.896 866.926 251.729 851.628 146.595 776.005L146.595 841.461C246.572 905.408 333.424 922.279 412.856 906.433C511.149 886.824 591.523 817.534 664.579 746.245Z" fill="black"/>
<rect x="0.5" y="0.5" width="1379" height="1379" stroke="#B0B0B0"/>
</svg>
