<svg width="37" height="25" viewBox="0 0 37 25" fill="none" xmlns="http://www.w3.org/2000/svg">
<path d="M35.672 3.91165C35.2543 2.37194 34.0244 1.15931 32.4632 0.747786C29.6333 0 18.2849 0 18.2849 0C18.2849 0 6.93654 0 4.10671 0.747786C2.54542 1.15937 1.31558 2.37194 0.897837 3.91165C0.139772 6.70248 0.139771 12.5252 0.139771 12.5252C0.139771 12.5252 0.139772 18.3481 0.897837 21.1389C1.31558 22.6785 2.54542 23.8407 4.10671 24.2522C6.93654 25 18.2849 25 18.2849 25C18.2849 25 29.6333 25 32.4632 24.2522C34.0244 23.8407 35.2543 22.6785 35.672 21.1389C36.4301 18.3481 36.4301 12.5252 36.4301 12.5252C36.4301 12.5252 36.4301 6.70248 35.672 3.91165ZM14.5736 17.8119V7.23861L24.0583 12.5254L14.5736 17.8119Z" fill="white"/>
<path d="M35.672 3.91165C35.2543 2.37194 34.0244 1.15931 32.4632 0.747786C29.6333 0 18.2849 0 18.2849 0C18.2849 0 6.93654 0 4.10671 0.747786C2.54542 1.15937 1.31558 2.37194 0.897837 3.91165C0.139772 6.70248 0.139771 12.5252 0.139771 12.5252C0.139771 12.5252 0.139772 18.3481 0.897837 21.1389C1.31558 22.6785 2.54542 23.8407 4.10671 24.2522C6.93654 25 18.2849 25 18.2849 25C18.2849 25 29.6333 25 32.4632 24.2522C34.0244 23.8407 35.2543 22.6785 35.672 21.1389C36.4301 18.3481 36.4301 12.5252 36.4301 12.5252C36.4301 12.5252 36.4301 6.70248 35.672 3.91165ZM14.5736 17.8119V7.23861L24.0583 12.5254L14.5736 17.8119Z" fill="#FF0000" fill-opacity="0.5"/>
</svg>
